<svg xmlns="http://www.w3.org/2000/svg" width="78" height="62" fill="#fff"><path d="M16.125 29.75A16.13 16.13 0 0 0 0 45.875 16.13 16.13 0 0 0 16.125 62 16.13 16.13 0 0 0 32.25 45.875c.001-8.907-7.22-16.126-16.125-16.126zm0 23.433a7.31 7.31 0 0 1-7.307-7.307 7.31 7.31 0 0 1 7.307-7.308 7.31 7.31 0 0 1 7.307 7.308 7.31 7.31 0 0 1-7.307 7.307zm44.73-7.31c-4.453 0-8.062 3.6-8.062 8.062A8.06 8.06 0 0 0 60.854 62c4.454 0 8.062-3.6 8.062-8.063s-3.608-8.062-8.062-8.062zm0 13.126c-2.796 0-5.062-2.268-5.062-5.063s2.267-5.062 5.062-5.062 5.062 2.268 5.062 5.062S63.65 59 60.854 59zm17.044-9.273l-2.46-18.414c-.547-4.14-3.625-4.688-3.625-4.688L66 25.946V14h-3v5.833h-4v5.295L47.188 23.75 36.626 1.875C35.814.062 33.5 0 33.5 0S11.125 2.375 8.75 3 5.312 6.167 5.312 6.167C3.004 12.537 3 23.463 3.046 26.422a23.33 23.33 0 0 1 13.08-3.986c12.944 0 23.438 10.493 23.438 23.44a23.43 23.43 0 0 1-1.064 7h10.164c.4-6.402 5.7-11.48 12.2-11.48s11.802 5.077 12.2 11.48H75c3.64 0 2.898-3.148 2.898-3.148zM23.083 19.833h-6.958V6.167h6.958v13.666zm10 0h-6.958V6.167h6.958v13.666zM53.016 36H49v-7h4.016v7zm7 0H56v-7h4.016v7zm7 0H63v-7h4.016v7z"/></svg>