<svg xmlns="http://www.w3.org/2000/svg" width="59" height="72" fill="#fff"><path d="M58.34 20.545c-.566-.753-1.454-1.195-2.396-1.195h-38.67L14.8 11.965H3.058a3 3 0 1 0 0 6h7.424l13.5 40.285h25.16a3 3 0 1 0 0-6H28.3l-1.726-5.15h23.12a3 3 0 0 0 2.884-2.172l6.25-21.75c.26-.906.08-1.88-.487-2.634zm-7.78 9.68h-4.8V25.35h6.21l-1.4 4.876zm-17.617 0V25.35h6.807v4.875h-6.807zm6.807 6V41.1h-6.807v-4.875h6.807zM26.942 25.35v4.875H20.92l-1.634-4.875h7.657zM22.93 36.226h4.013V41.1h-2.38l-1.634-4.875zM45.75 41.1v-4.875h3.086l-1.4 4.875H45.75z"/><circle cx="27.406" cy="66.094" r="5.781"/><circle cx="44.844" cy="66.094" r="5.781"/><path d="M29.335 9.7l7.547 5.492c.914.665 2.174.44 2.818-.494s.43-2.232-.48-2.895l-2.373-1.726 9.436-5.1L50.91 17h4.347L49.214 1.31A2.05 2.05 0 0 0 48.037.126a1.97 1.97 0 0 0-1.643.109L33.146 7.382l-3.022-2.2c-.872-.634-2.07-.462-2.742.4L18.9 16.37c-.17.18-.305.395-.405.628h5.106l5.733-7.3z"/></svg>